<svg width="217.499" height="261.551" overflow="visible" viewBox="0 0 217.499 261.551" fill="none" xmlns="http://www.w3.org/2000/svg">
<g id="tail">
<g id="Vector 2" filter="url(#filter0_d_0_4)">
<path d="M127.914 54.1752C89.2722 31.5149 45.3322 59.5579 45.3322 59.5579C45.3322 59.5579 54.4597 109.42 92.6258 130.432C130.792 151.444 172.004 129.295 172.004 129.295C172.004 129.295 166.556 76.8356 127.914 54.1752Z" fill="#FFE3AB"/>
</g>
<g id="Vector 3" filter="url(#filter1_d_0_4)">
<path d="M90.3915 130.593C52.0396 153.832 49.953 209.314 49.953 209.314C49.953 209.314 93.3589 227.859 130.182 204.166C167.005 180.474 172.167 130.679 172.167 130.679C172.167 130.679 128.743 107.354 90.3915 130.593Z" fill="#FFE3AB"/>
</g>
</g>
<defs>
<filter id="filter0_d_0_4" x="0" y="0" width="217.337" height="184.817" filterUnits="userSpaceOnUse" color-interpolation-filters="sRGB">
<feFlood flood-opacity="0" result="BackgroundImageFix"/>
<feColorMatrix in="SourceAlpha" type="matrix" values="0 0 0 0 0 0 0 0 0 0 0 0 0 0 0 0 0 0 127 0" result="hardAlpha"/>
<feOffset/>
<feGaussianBlur stdDeviation="22.6661"/>
<feComposite in2="hardAlpha" operator="out"/>
<feColorMatrix type="matrix" values="0 0 0 0 1 0 0 0 0 0.890196 0 0 0 0 0.670588 0 0 0 1 0"/>
<feBlend mode="normal" in2="BackgroundImageFix" result="effect1_dropShadow_0_4"/>
<feBlend mode="normal" in="SourceGraphic" in2="effect1_dropShadow_0_4" result="shape"/>
</filter>
<filter id="filter1_d_0_4" x="4.62072" y="74.9548" width="212.878" height="186.596" filterUnits="userSpaceOnUse" color-interpolation-filters="sRGB">
<feFlood flood-opacity="0" result="BackgroundImageFix"/>
<feColorMatrix in="SourceAlpha" type="matrix" values="0 0 0 0 0 0 0 0 0 0 0 0 0 0 0 0 0 0 127 0" result="hardAlpha"/>
<feOffset/>
<feGaussianBlur stdDeviation="22.6661"/>
<feComposite in2="hardAlpha" operator="out"/>
<feColorMatrix type="matrix" values="0 0 0 0 1 0 0 0 0 0.890196 0 0 0 0 0.670588 0 0 0 1 0"/>
<feBlend mode="normal" in2="BackgroundImageFix" result="effect1_dropShadow_0_4"/>
<feBlend mode="normal" in="SourceGraphic" in2="effect1_dropShadow_0_4" result="shape"/>
</filter>
</defs>
</svg>
